<svg width="34" height="34" viewBox="0 0 34 34" fill="none" xmlns="http://www.w3.org/2000/svg">
<path d="M12.7502 31.1667C13.5326 31.1667 14.1668 30.5324 14.1668 29.75C14.1668 28.9676 13.5326 28.3334 12.7502 28.3334C11.9678 28.3334 11.3335 28.9676 11.3335 29.75C11.3335 30.5324 11.9678 31.1667 12.7502 31.1667Z" stroke="black" stroke-width="2" stroke-linecap="round" stroke-linejoin="round"/>
<path d="M28.3332 31.1667C29.1156 31.1667 29.7498 30.5324 29.7498 29.75C29.7498 28.9676 29.1156 28.3334 28.3332 28.3334C27.5508 28.3334 26.9165 28.9676 26.9165 29.75C26.9165 30.5324 27.5508 31.1667 28.3332 31.1667Z" stroke="black" stroke-width="2" stroke-linecap="round" stroke-linejoin="round"/>
<path d="M1.4165 1.41663H7.08317L10.8798 20.3858C11.0094 21.038 11.3642 21.6239 11.8822 22.0409C12.4002 22.4579 13.0483 22.6794 13.7132 22.6666H27.4832C28.148 22.6794 28.7962 22.4579 29.3141 22.0409C29.8321 21.6239 30.187 21.038 30.3165 20.3858L32.5832 8.49996H8.49984" stroke="black" stroke-width="2" stroke-linecap="round" stroke-linejoin="round"/>
</svg>
