<svg width="164" height="34" viewBox="0 0 164 34" fill="none" xmlns="http://www.w3.org/2000/svg">
<path d="M1 33H0L-1.19209e-07 34H1V33ZM2 3C2 2.44772 1.55229 2 1 2C0.447719 2 3.93391e-06 2.44772 3.8743e-06 3L2 3ZM1 34H164V32H1V34ZM2 33L2 3L3.8743e-06 3L0 33H2Z" fill="#D5D5D5"/>
<path d="M1.77405 32.247C37.3556 23.6996 49.8716 18.8108 64.0623 14.3648C64.3843 14.2639 64.7188 14.2044 65.0557 14.1877L106.785 12.1187C107.122 12.102 107.455 12.0428 107.777 11.9426L142.669 1.0778" stroke="#252525" stroke-width="2" stroke-linecap="round"/>
</svg>
