<svg width="78" height="26" viewBox="0 0 78 26" fill="none" xmlns="http://www.w3.org/2000/svg">
<path d="M73.4013 0H4.68558C2.39444 0 0.537109 1.42583 0.537109 3.18467V22.8153C0.537109 24.5742 2.39444 26 4.68558 26H73.4013C75.6924 26 77.5498 24.5742 77.5498 22.8153V3.18467C77.5498 1.42583 75.6924 0 73.4013 0Z" fill="#FEFEFE"/>
<path fill-rule="evenodd" clip-rule="evenodd" d="M8.94043 6.44567C10.7913 6.44975 12.6404 6.44703 14.493 6.44567C15.3635 6.4375 16.2375 6.78183 16.7126 7.34527C17.1558 7.82705 17.3242 8.41091 17.5423 8.96755C18.2124 10.7001 18.8719 12.4353 19.5439 14.1678C19.5545 14.3243 19.8576 14.3842 19.9162 14.2182C20.6022 12.4693 21.2635 10.715 21.9443 8.96482C22.1783 8.3483 22.3786 7.69232 22.9229 7.18603C23.2722 6.85804 23.7615 6.62395 24.2951 6.51508C24.7489 6.41845 25.2223 6.45519 25.6868 6.44975C27.3107 6.45383 28.9364 6.43886 30.5621 6.45791C30.5515 10.8089 30.5674 15.1613 30.5533 19.5124C28.7964 19.5042 27.0377 19.5246 25.279 19.5015C25.279 16.9483 25.2861 14.3965 25.2755 11.8433C25.2648 11.616 24.7755 11.6351 24.7419 11.8487C23.6959 14.3992 22.641 16.9469 21.611 19.5001C20.37 19.5219 19.1272 19.5042 17.8845 19.5083C16.8403 16.9578 15.8031 14.406 14.7465 11.8596C14.7022 11.6487 14.3778 11.6419 14.204 11.7643C14.2076 14.3434 14.2005 16.9224 14.2076 19.5015C12.4524 19.5178 10.6973 19.5015 8.9422 19.5096C8.9422 15.1545 8.9422 10.8008 8.9422 6.44567H8.94043ZM32.959 6.45383C34.7124 6.43342 36.4693 6.46472 38.2226 6.4375C38.251 9.02062 38.2262 11.6051 38.235 14.1882C38.3857 14.2917 38.6605 14.323 38.7527 14.1528C39.921 12.2733 41.084 10.3911 42.2505 8.51162C42.6211 7.92776 42.9207 7.29491 43.5234 6.82266C43.7929 6.62668 44.1298 6.4375 44.5198 6.44975C46.3086 6.44975 48.0974 6.44158 49.8862 6.45383C49.888 10.8035 49.888 15.1532 49.8862 19.5028C48.1311 19.5137 46.376 19.5124 44.6191 19.5028C44.6191 16.9265 44.6262 14.3488 44.6155 11.7725C44.612 11.5507 44.1227 11.5697 44.073 11.7684C42.9721 13.633 41.8765 15.4988 40.7773 17.362C40.4387 17.9282 40.1178 18.5107 39.6125 19.0034C39.3306 19.2783 38.9211 19.5246 38.4424 19.5083C36.6146 19.5083 34.7851 19.5096 32.9572 19.5083C32.9572 15.1572 32.959 10.8062 32.9572 6.45519L32.959 6.45383ZM52.4551 12.4149C57.9686 12.3863 63.4822 12.4149 68.9958 12.4013C68.8096 12.9838 68.3185 13.486 67.7991 13.9242C66.7726 14.7789 65.2994 15.3001 63.7836 15.3314C61.7696 15.3396 59.7557 15.3314 57.7417 15.3355C57.7293 16.7278 57.7417 18.1187 57.7364 19.511C55.9795 19.5055 54.2226 19.5151 52.4639 19.5055C52.4551 17.1429 52.4728 14.7803 52.4551 12.4162V12.4149Z" fill="#3DA536"/>
<path fill-rule="evenodd" clip-rule="evenodd" d="M51.7861 6.4525C55.9045 6.44841 60.0246 6.44569 64.1429 6.44977C65.2226 6.50966 66.2668 6.84582 67.1231 7.35074C68.3658 8.09383 69.2044 9.23432 69.3427 10.4415C69.3746 10.877 69.364 11.3152 69.2789 11.7467C66.7543 11.7576 64.2316 11.7467 61.707 11.7494C60.8401 11.744 59.9696 11.7766 59.1098 11.6786C57.1721 11.4895 55.2609 10.8702 53.887 9.78415C52.7293 8.89272 52.0166 7.69234 51.7861 6.45386V6.4525Z" fill="#008CD2"/>
</svg>
