<svg width="34" height="34" viewBox="0 0 34 34" fill="none" xmlns="http://www.w3.org/2000/svg">
<path d="M29.5232 6.53086C28.7996 5.80695 27.9405 5.23269 26.9949 4.84089C26.0494 4.4491 25.0359 4.24744 24.0123 4.24744C22.9888 4.24744 21.9753 4.4491 21.0298 4.84089C20.0842 5.23269 19.2251 5.80695 18.5015 6.53086L16.9998 8.03252L15.4982 6.53086C14.0366 5.06929 12.0543 4.24819 9.98734 4.24819C7.92038 4.24819 5.93807 5.06929 4.47651 6.53086C3.01495 7.99242 2.19385 9.97473 2.19385 12.0417C2.19385 14.1087 3.01495 16.091 4.47651 17.5525L5.97818 19.0542L16.9998 30.0759L28.0215 19.0542L29.5232 17.5525C30.2471 16.829 30.8213 15.9698 31.2131 15.0243C31.6049 14.0787 31.8066 13.0652 31.8066 12.0417C31.8066 11.0182 31.6049 10.0047 31.2131 9.0591C30.8213 8.11354 30.2471 7.25443 29.5232 6.53086Z" stroke="#1E1E1E" stroke-width="2" stroke-linecap="round" stroke-linejoin="round"/>
</svg>
