<svg width="24" height="24" viewBox="0 0 24 24" fill="none" xmlns="http://www.w3.org/2000/svg">
<path d="M2.88047 7.12022C2.39047 7.61022 2.39047 8.40022 2.88047 8.89022L11.2905 17.3002C11.383 17.3929 11.4929 17.4665 11.6138 17.5167C11.7348 17.5668 11.8645 17.5927 11.9955 17.5927C12.1264 17.5927 12.2561 17.5668 12.3771 17.5167C12.4981 17.4665 12.608 17.3929 12.7005 17.3002L21.1205 8.88022C21.6005 8.40022 21.6005 7.60022 21.1205 7.12022C21.0044 7.00382 20.8664 6.91146 20.7146 6.84844C20.5627 6.78543 20.3999 6.75299 20.2355 6.75299C20.0711 6.75299 19.9082 6.78543 19.7564 6.84844C19.6045 6.91146 19.4666 7.00382 19.3505 7.12022L12.0005 14.4602L4.65047 7.11022C4.16047 6.63022 3.37047 6.63022 2.88047 7.12022Z" fill="#1A141F"/>
</svg>
