<svg width="24" height="24" viewBox="0 0 24 24" fill="none" xmlns="http://www.w3.org/2000/svg">
<path d="M2.87998 7.11998C2.38998 7.60998 2.38998 8.39998 2.87998 8.88998L11.29 17.3C11.3825 17.3927 11.4924 17.4662 11.6134 17.5164C11.7343 17.5666 11.864 17.5924 11.995 17.5924C12.1259 17.5924 12.2556 17.5666 12.3766 17.5164C12.4976 17.4662 12.6075 17.3927 12.7 17.3L21.12 8.87998C21.6 8.39998 21.6 7.59998 21.12 7.11998C21.0039 7.00357 20.8659 6.91121 20.7141 6.8482C20.5622 6.78518 20.3994 6.75275 20.235 6.75275C20.0706 6.75275 19.9078 6.78518 19.7559 6.8482C19.604 6.91121 19.4661 7.00357 19.35 7.11998L12 14.46L4.64998 7.10998C4.15998 6.62998 3.36998 6.62998 2.87998 7.11998Z" fill="#1A141F"/>
</svg>
