<svg width="24" height="24" viewBox="0 0 24 24" fill="none" xmlns="http://www.w3.org/2000/svg">
<path d="M20.75 13.252H14.5C14.5 13.5905 14.3763 13.8835 14.1289 14.1309C13.8815 14.3783 13.5885 14.502 13.25 14.502H10.75C10.3984 14.502 10.1022 14.3783 9.86133 14.1309C9.62044 13.8835 9.5 13.5905 9.5 13.252H3.25C2.89844 13.252 2.60221 13.1283 2.36133 12.8809C2.12044 12.6335 2 12.3372 2 11.9922C2 11.6471 2.12044 11.3542 2.36133 11.1133C2.60221 10.8724 2.89844 10.752 3.25 10.752H9.5C9.5 10.4004 9.62044 10.1042 9.86133 9.86328C10.1022 9.6224 10.3984 9.50195 10.75 9.50195H13.25C13.6016 9.50195 13.8978 9.6224 14.1387 9.86328C14.3796 10.1042 14.5 10.4004 14.5 10.752H20.75C21.1016 10.752 21.3978 10.8724 21.6387 11.1133C21.8796 11.3542 22 11.6471 22 11.9922C22 12.3372 21.8796 12.6335 21.6387 12.8809C21.3978 13.1283 21.1016 13.252 20.75 13.252ZM13.25 10.752H10.75V13.252H13.25V10.752ZM20.75 5.75195H19.5C19.5 6.09049 19.3763 6.38346 19.1289 6.63086C18.8815 6.87826 18.5885 7.00195 18.25 7.00195H15.75C15.3984 7.00195 15.1022 6.87826 14.8613 6.63086C14.6204 6.38346 14.5 6.09049 14.5 5.75195H3.25C2.89844 5.75195 2.60221 5.62826 2.36133 5.38086C2.12044 5.13346 2 4.83724 2 4.49219C2 4.14714 2.12044 3.85417 2.36133 3.61328C2.60221 3.3724 2.89844 3.25195 3.25 3.25195H14.5C14.5 2.90039 14.6204 2.60417 14.8613 2.36328C15.1022 2.1224 15.3984 2.00195 15.75 2.00195H18.25C18.6016 2.00195 18.8978 2.1224 19.1387 2.36328C19.3796 2.60417 19.5 2.90039 19.5 3.25195H20.75C21.1016 3.25195 21.3978 3.3724 21.6387 3.61328C21.8796 3.85417 22 4.14714 22 4.49219C22 4.83724 21.8796 5.13346 21.6387 5.38086C21.3978 5.62826 21.1016 5.75195 20.75 5.75195ZM18.25 3.25195H15.75V5.75195H18.25V3.25195ZM3.25 18.252H4.5C4.5 17.9004 4.62044 17.6042 4.86133 17.3633C5.10221 17.1224 5.39844 17.002 5.75 17.002H8.25C8.58854 17.002 8.88151 17.1224 9.12891 17.3633C9.3763 17.6042 9.5 17.9004 9.5 18.252H20.75C21.1016 18.252 21.3978 18.3724 21.6387 18.6133C21.8796 18.8542 22 19.1471 22 19.4922C22 19.8372 21.8763 20.1335 21.6289 20.3809C21.3815 20.6283 21.0885 20.752 20.75 20.752H9.5C9.5 21.1035 9.3763 21.3997 9.12891 21.6406C8.88151 21.8815 8.58854 22.002 8.25 22.002H5.75C5.39844 22.002 5.10221 21.8783 4.86133 21.6309C4.62044 21.3835 4.5 21.0905 4.5 20.752H3.25C2.89844 20.752 2.60221 20.6283 2.36133 20.3809C2.12044 20.1335 2 19.8372 2 19.4922C2 19.1471 2.12044 18.8542 2.36133 18.6133C2.60221 18.3724 2.89844 18.252 3.25 18.252ZM5.75 20.752H8.25V18.252H5.75V20.752Z" fill="#1A141F"/>
</svg>
