<svg width="90" height="39" viewBox="0 0 90 39" fill="none" xmlns="http://www.w3.org/2000/svg">
<path d="M85.1519 0H4.84807C2.17055 0 0 2.13874 0 4.77701V34.223C0 36.8613 2.17055 39 4.84807 39H85.1519C87.8294 39 90 36.8613 90 34.223V4.77701C90 2.13874 87.8294 0 85.1519 0Z" fill="#FEFEFE"/>
<path fill-rule="evenodd" clip-rule="evenodd" d="M9.82031 9.6685C11.9833 9.67462 14.1442 9.67054 16.3093 9.6685C17.3265 9.65625 18.3479 10.1727 18.9032 11.0179C19.4211 11.7406 19.618 12.6164 19.8728 13.4513C20.6559 16.0501 21.4267 18.653 22.2119 21.2517C22.2243 21.4865 22.5786 21.5763 22.647 21.3273C23.4488 18.704 24.2216 16.0725 25.0171 13.4472C25.2906 12.5225 25.5247 11.5385 26.1608 10.7791C26.5689 10.2871 27.1408 9.93593 27.7644 9.77261C28.2948 9.62767 28.8479 9.68279 29.3908 9.67462C31.2885 9.68075 33.1884 9.65829 35.0883 9.68687C35.0758 16.2134 35.0945 22.742 35.0779 29.2685C33.0247 29.2563 30.9695 29.2869 28.9142 29.2522C28.9142 25.4224 28.9225 21.5947 28.9101 17.7649C28.8977 17.424 28.3258 17.4526 28.2865 17.7731C27.0641 21.5988 25.8314 25.4204 24.6276 29.2502C23.1774 29.2828 21.725 29.2563 20.2727 29.2624C19.0524 25.4367 17.8403 21.609 16.6055 17.7894C16.5537 17.473 16.1746 17.4628 15.9716 17.6465C15.9757 21.5151 15.9674 25.3836 15.9757 29.2522C13.9246 29.2767 11.8735 29.2522 9.82238 29.2644C9.82238 22.7318 9.82238 16.2012 9.82238 9.6685H9.82031ZM37.8894 9.68075C39.9384 9.65013 41.9916 9.69708 44.0406 9.65625C44.0738 13.5309 44.0448 17.4077 44.0551 21.2823C44.2312 21.4375 44.5524 21.4845 44.6601 21.2293C46.0254 18.41 47.3845 15.5867 48.7478 12.7674C49.1808 11.8916 49.531 10.9424 50.2354 10.234C50.5503 9.94001 50.9439 9.65625 51.3997 9.67462C53.4902 9.67462 55.5807 9.66237 57.6711 9.68075C57.6732 16.2052 57.6732 22.7297 57.6711 29.2542C55.62 29.2706 53.5689 29.2685 51.5158 29.2542C51.5158 25.3898 51.524 21.5232 51.5116 17.6588C51.5075 17.326 50.9356 17.3546 50.8776 17.6526C49.591 20.4494 48.3106 23.2483 47.0261 26.043C46.6304 26.8923 46.2554 27.766 45.6649 28.505C45.3355 28.9174 44.8569 29.2869 44.2975 29.2624C42.1615 29.2624 40.0234 29.2644 37.8873 29.2624C37.8873 22.7359 37.8894 16.2093 37.8873 9.68279L37.8894 9.68075ZM60.6732 18.6223C67.1166 18.5795 73.56 18.6223 80.0033 18.6019C79.7858 19.4757 79.2119 20.229 78.6049 20.8863C77.4053 22.1683 75.6836 22.9502 73.9122 22.9972C71.5586 23.0094 69.205 22.9972 66.8514 23.0033C66.8369 25.0917 66.8514 27.1781 66.8452 29.2665C64.792 29.2583 62.7388 29.2726 60.6836 29.2583C60.6732 25.7144 60.6939 22.1704 60.6732 18.6244V18.6223Z" fill="#3DA536"/>
<path fill-rule="evenodd" clip-rule="evenodd" d="M59.8926 9.67899C64.7054 9.67286 69.5203 9.66878 74.3332 9.6749C75.5949 9.76473 76.8152 10.269 77.8159 11.0263C79.2683 12.141 80.2482 13.8517 80.4098 15.6625C80.4471 16.3158 80.4347 16.9731 80.3353 17.6203C77.385 17.6366 74.4368 17.6203 71.4865 17.6243C70.4734 17.6162 69.4561 17.6652 68.4513 17.5182C66.1868 17.2344 63.9534 16.3056 62.3477 14.6765C60.9948 13.3393 60.1619 11.5388 59.8926 9.68103V9.67899Z" fill="#008CD2"/>
</svg>
