<svg width="32" height="33" viewBox="0 0 32 33" fill="none" xmlns="http://www.w3.org/2000/svg">
<path d="M4 8.5H6.66667H28" stroke="black" stroke-width="2" stroke-linecap="round" stroke-linejoin="round"/>
<path d="M25.3327 8.50033V27.167C25.3327 27.8742 25.0517 28.5525 24.5516 29.0526C24.0515 29.5527 23.3733 29.8337 22.666 29.8337H9.33268C8.62544 29.8337 7.94716 29.5527 7.44706 29.0526C6.94697 28.5525 6.66602 27.8742 6.66602 27.167V8.50033M10.666 8.50033V5.83366C10.666 5.12641 10.947 4.44814 11.4471 3.94804C11.9472 3.44794 12.6254 3.16699 13.3327 3.16699H18.666C19.3733 3.16699 20.0515 3.44794 20.5516 3.94804C21.0517 4.44814 21.3327 5.12641 21.3327 5.83366V8.50033" stroke="black" stroke-width="2" stroke-linecap="round" stroke-linejoin="round"/>
<path d="M13.334 15.167V23.167" stroke="black" stroke-width="2" stroke-linecap="round" stroke-linejoin="round"/>
<path d="M18.666 15.167V23.167" stroke="black" stroke-width="2" stroke-linecap="round" stroke-linejoin="round"/>
</svg>
