<svg width="32" height="32" viewBox="0 0 32 32" fill="none" xmlns="http://www.w3.org/2000/svg">
<path fill-rule="evenodd" clip-rule="evenodd" d="M15.9999 6.39999C19.1263 6.39999 19.4975 6.41119 20.7327 6.46879C23.9055 6.61279 25.3887 8.11839 25.5327 11.2688C25.5887 12.5024 25.5999 12.8736 25.5999 16C25.5999 19.128 25.5887 19.4976 25.5327 20.7312C25.3871 23.8784 23.9087 25.3872 20.7327 25.5312C19.4975 25.5888 19.1279 25.6 15.9999 25.6C12.8735 25.6 12.5023 25.5888 11.2687 25.5312C8.0863 25.3872 6.6127 23.8736 6.4687 20.7312C6.4111 19.496 6.3999 19.1264 6.3999 15.9984C6.3999 12.872 6.4127 12.5024 6.4687 11.2672C6.6127 8.11839 8.0927 6.61119 11.2687 6.46719C12.5039 6.41119 12.8735 6.39999 15.9999 6.39999ZM15.9999 10.4688C15.2735 10.4688 14.5543 10.6119 13.8832 10.8898C13.2121 11.1678 12.6024 11.5752 12.0888 12.0888C11.5751 12.6025 11.1677 13.2122 10.8897 13.8833C10.6118 14.5544 10.4687 15.2736 10.4687 16C10.4687 16.7264 10.6118 17.4456 10.8897 18.1167C11.1677 18.7878 11.5751 19.3975 12.0888 19.9111C12.6024 20.4248 13.2121 20.8322 13.8832 21.1102C14.5543 21.3881 15.2735 21.5312 15.9999 21.5312C17.4669 21.5312 18.8738 20.9484 19.9111 19.9111C20.9484 18.8738 21.5311 17.467 21.5311 16C21.5311 14.533 20.9484 13.1261 19.9111 12.0888C18.8738 11.0515 17.4669 10.4688 15.9999 10.4688ZM15.9999 19.5888C15.5221 19.5989 15.0472 19.5135 14.6028 19.3376C14.1585 19.1618 13.7537 18.899 13.4123 18.5646C13.0708 18.2303 12.7995 17.8312 12.6143 17.3907C12.4291 16.9501 12.3337 16.4771 12.3337 15.9992C12.3337 15.5213 12.4291 15.0483 12.6143 14.6077C12.7995 14.1672 13.0708 13.7681 13.4123 13.4337C13.7537 13.0994 14.1585 12.8366 14.6028 12.6608C15.0472 12.4849 15.5221 12.3995 15.9999 12.4096C16.9388 12.4294 17.8326 12.8163 18.4896 13.4873C19.1466 14.1584 19.5145 15.0601 19.5145 15.9992C19.5145 16.9383 19.1466 17.84 18.4896 18.5111C17.8326 19.1821 16.9388 19.569 15.9999 19.5888ZM21.7503 8.95679C21.5804 8.95679 21.4122 8.99025 21.2553 9.05526C21.0983 9.12027 20.9557 9.21556 20.8356 9.33568C20.7155 9.4558 20.6202 9.59841 20.5552 9.75535C20.4902 9.9123 20.4567 10.0805 20.4567 10.2504C20.4567 10.4203 20.4902 10.5885 20.5552 10.7454C20.6202 10.9024 20.7155 11.045 20.8356 11.1651C20.9557 11.2852 21.0983 11.3805 21.2553 11.4455C21.4122 11.5105 21.5804 11.544 21.7503 11.544C22.0934 11.544 22.4224 11.4077 22.665 11.1651C22.9076 10.9225 23.0439 10.5935 23.0439 10.2504C23.0439 9.90731 22.9076 9.57828 22.665 9.33568C22.4224 9.09308 22.0934 8.95679 21.7503 8.95679Z" fill="#252525"/>
</svg>
