<svg width="32" height="32" viewBox="0 0 32 32" fill="none" xmlns="http://www.w3.org/2000/svg">
<path fill-rule="evenodd" clip-rule="evenodd" d="M28.3774 8.68641C27.493 9.07594 26.556 9.3331 25.5966 9.44961C26.6062 8.84243 27.362 7.89052 27.7246 6.76961C26.7703 7.32502 25.7307 7.71861 24.6478 7.93441C23.9196 7.15412 22.954 6.63631 21.9011 6.4615C20.8482 6.2867 19.7671 6.46469 18.8258 6.96781C17.8846 7.47093 17.1359 8.27097 16.6963 9.24352C16.2567 10.2161 16.1508 11.3066 16.395 12.3456C14.4706 12.2528 12.5874 11.7556 10.8679 10.8864C9.14853 10.0172 7.63154 8.79544 6.41581 7.30081C5.99501 8.01121 5.7598 8.83681 5.7598 9.73601C5.7598 11.4192 6.61581 12.8992 7.91341 13.768C7.14487 13.7433 6.39335 13.5354 5.7214 13.1616V13.2224C5.72058 14.341 6.10686 15.4255 6.81468 16.2916C7.5225 17.1578 8.50825 17.7524 9.6046 17.9744C8.89449 18.1639 8.15092 18.1918 7.42861 18.056C7.73976 19.0182 8.34339 19.8594 9.15534 20.4623C9.96729 21.0652 10.9471 21.3997 11.9582 21.4192C10.9552 22.2074 9.80683 22.7902 8.57858 23.1345C7.35033 23.4787 6.0663 23.5777 4.7998 23.4256C7.02012 24.8473 9.60175 25.6019 12.2382 25.6C21.1502 25.6 26.0158 18.2224 26.0158 11.8336C26.0158 11.6288 26.0158 11.4208 26.0014 11.2144C26.9527 10.53 27.7732 9.68026 28.4238 8.70561L28.3758 8.68641H28.3774Z" fill="#252525"/>
</svg>
